<?xml version="1.0" standalone="no"?>
<!DOCTYPE svg PUBLIC "-//W3C//DTD SVG 20010904//EN"
 "http://www.w3.org/TR/2001/REC-SVG-20010904/DTD/svg10.dtd">
<svg version="1.0" xmlns="http://www.w3.org/2000/svg"
 width="436.000000pt" height="450.000000pt" viewBox="0 0 436.000000 450.000000"
 preserveAspectRatio="xMidYMid meet">

<g transform="translate(0.000000,450.000000) scale(0.100000,-0.100000)"
fill="#000000" stroke="none">
<path d="M2085 4493 c-693 -60 -1295 -415 -1684 -993 -148 -221 -281 -545
-340 -830 -55 -262 -69 -600 -36 -845 87 -657 431 -1198 976 -1536 151 -94
528 -263 546 -245 2 2 -35 30 -83 62 -559 371 -871 1007 -817 1663 51 611 373
1116 877 1371 263 133 529 188 861 177 263 -9 528 -61 810 -161 71 -25 130
-46 131 -46 3 0 590 703 592 711 6 15 -13 33 -112 113 -263 210 -511 346 -816
446 -288 95 -628 137 -905 113z"/>
<path d="M2130 3193 c-238 -17 -468 -95 -665 -225 -113 -74 -306 -269 -384
-388 -341 -518 -386 -1193 -115 -1733 103 -204 299 -424 490 -550 446 -295
1048 -373 1570 -202 294 96 538 249 769 480 143 143 212 231 312 397 53 88
145 279 138 287 -2 1 -52 -40 -110 -93 -142 -128 -292 -239 -424 -315 -602
-345 -1201 -301 -1712 125 -253 211 -393 441 -461 757 -17 81 -22 136 -22 267
0 182 14 277 64 440 94 306 312 581 565 711 64 34 81 51 48 47 -10 -1 -38 -3
-63 -5z"/>
<path d="M2959 2060 c-106 -148 -195 -274 -197 -280 -3 -7 119 -10 352 -10
l356 0 -29 -57 c-131 -261 -410 -459 -714 -508 -117 -19 -192 -19 -301 0 -308
54 -556 243 -716 545 l-45 85 -3 -59 c-9 -183 167 -512 380 -711 241 -223 522
-335 842 -335 260 1 503 55 731 165 145 70 263 155 377 273 141 146 234 298
297 487 55 165 66 241 66 450 0 105 -3 198 -7 208 -7 16 -45 17 -601 17 l-593
0 -195 -270z"/>
</g>
</svg>
